<svg xmlns="http://www.w3.org/2000/svg" viewBox="0 0 126 126"><defs><style>.cls-1{fill:#1d252c;}.cls-2{fill:#03e100;}</style></defs><g id="Artwork"><path class="cls-1" d="M113.8,79.6,99.17,70.82V53.2a3.5,3.5,0,0,0-1.7-3L82.84,41.42V35h-7v6.42L63,49.12l-12.83-7.7V25.78L63,18.08l6.64,4,3.61-6L64.8,11a3.48,3.48,0,0,0-3.6,0L44.87,20.8a3.48,3.48,0,0,0-1.7,3V41.42L28.53,50.2a3.5,3.5,0,0,0-1.7,3V70.82L12.2,79.6a3.5,3.5,0,0,0-1.7,3v19.6a3.5,3.5,0,0,0,1.7,3L28.53,115a3.54,3.54,0,0,0,1.8.5,3.49,3.49,0,0,0,1.8-.5l14.54-8.72L61.2,115a3.49,3.49,0,0,0,3.6,0l14.53-8.72L93.87,115a3.49,3.49,0,0,0,1.8.5,3.54,3.54,0,0,0,1.8-.5l16.33-9.8a3.5,3.5,0,0,0,1.7-3V82.6A3.5,3.5,0,0,0,113.8,79.6ZM92.17,70.82l-12.84,7.7-4.5-2.7-8.33-5V55.18l12.84-7.7,12.83,7.7ZM63,107.92l-12.83-7.7V91h-7v9.22l-12.84,7.7-12.83-7.7V84.58l12.83-7.7L35.53,80l3.6-6-5.3-3.18V55.18l12.84-7.7,12.83,7.7V70.82L54.2,74l3.6,6L63,76.88l4.5,2.7,8.33,5v15.64Zm45.5-7.7-12.83,7.7-12.84-7.7V84.58l12.84-7.7,12.83,7.7Z"/><circle class="cls-2" cx="46.67" cy="81.63" r="5.25" transform="translate(-12.47 8.53) rotate(-9.22)"/><circle class="cls-2" cx="78.7" cy="25.52" r="5.25"/></g></svg>