<?xml version="1.0" encoding="UTF-8" standalone="no"?>
<svg
   xmlns:dc="http://purl.org/dc/elements/1.1/"
   xmlns:cc="http://creativecommons.org/ns#"
   xmlns:rdf="http://www.w3.org/1999/02/22-rdf-syntax-ns#"
   xmlns:svg="http://www.w3.org/2000/svg"
   xmlns="http://www.w3.org/2000/svg"
   xmlns:sodipodi="http://sodipodi.sourceforge.net/DTD/sodipodi-0.dtd"
   xmlns:inkscape="http://www.inkscape.org/namespaces/inkscape"
   inkscape:version="1.0 (4035a4fb49, 2020-05-01)"
   sodipodi:docname="International_.svg"
   id="svg13"
   version="1.1"
   viewBox="0 0 126 126">
  <metadata
     id="metadata17">
    <rdf:RDF>
      <cc:Work
         rdf:about="">
        <dc:format>image/svg+xml</dc:format>
        <dc:type
           rdf:resource="http://purl.org/dc/dcmitype/StillImage" />
        <dc:title></dc:title>
      </cc:Work>
    </rdf:RDF>
  </metadata>
  <sodipodi:namedview
     inkscape:current-layer="svg13"
     inkscape:window-maximized="1"
     inkscape:window-y="-11"
     inkscape:window-x="-11"
     inkscape:cy="58.005626"
     inkscape:cx="86.333736"
     inkscape:zoom="8.9791337"
     showgrid="false"
     id="namedview15"
     inkscape:window-height="1586"
     inkscape:window-width="2880"
     inkscape:pageshadow="2"
     inkscape:pageopacity="0"
     guidetolerance="10"
     gridtolerance="10"
     objecttolerance="10"
     borderopacity="1"
     bordercolor="#666666"
     pagecolor="#ffffff" />
  <defs
     id="defs4">
    <style
       id="style2">.cls-1{fill:#03e100;}.cls-2{fill:#1d252c;stroke:#1d252c;stroke-miterlimit:10;stroke-width:4px;}</style>
  </defs>
  <g
     id="Artwork">
    <circle
       id="circle6"
       r="5.25"
       cy="106.75"
       cx="91"
       class="cls-1" />
    <circle
       id="circle8"
       r="5.25"
       cy="19.25"
       cx="35"
       class="cls-1" />
    <path
       style="fill:#999999;stroke:#999999"
       id="path10"
       d="m 62.94,12.26 a 49.31,49.31 0 0 0 -5.44,0.29 l -1.44,0.17 c 0,0 -5.06,4.47 -4.92,4.44 A 42,42 0 0 0 40.32,34.73 57.22,57.22 0 0 1 28.72,30.27 l -2.87,-1.92 c -0.37,0.4 -0.74,0.8 -1.1,1.22 a 50.8,50.8 0 0 0 45.48,83.66 L 74.74,109 a 42.05,42.05 0 0 0 10.82,-17.61 57,57 0 0 1 11.61,4.47 35.64,35.64 0 0 1 3.19,1.86 c 8.13,-9.26 13.4,-22.33 13.39,-34.66 A 50.8,50.8 0 0 0 62.94,12.26 Z M 26.43,32.82 a 58.5,58.5 0 0 0 12.86,5.12 87.23,87.23 0 0 0 -3.42,23.43 H 15.56 A 47.35,47.35 0 0 1 26.43,32.82 Z m 0,60.48 A 47.32,47.32 0 0 1 15.56,64.76 h 20.31 a 87.23,87.23 0 0 0 3.42,23.43 59,59 0 0 0 -12.86,5.11 z m 24.29,15.58 -1,-0.3 -1.28,-0.39 -1.06,-0.36 -1.24,-0.45 L 45,107 l -1.21,-0.51 -1,-0.47 -1.18,-0.57 -1,-0.52 -1.14,-0.64 c -0.34,-0.18 -0.66,-0.38 -1,-0.57 l -1.1,-0.69 -1,-0.63 c -0.36,-0.24 -0.72,-0.5 -1.07,-0.75 l -0.93,-0.68 c -0.35,-0.26 -0.69,-0.54 -1,-0.81 l -0.89,-0.72 c -0.34,-0.28 -0.67,-0.58 -1,-0.87 L 30.62,97.8 29.67,96.88 28.85,96 28.71,95.84 A 56.67,56.67 0 0 1 40.31,91.37 42,42 0 0 0 51.14,109 Z m 10.53,1.47 c -7.25,-1 -13.6,-8.59 -17.6,-19.76 a 85.48,85.48 0 0 1 17.6,-2.07 z m 0,-25.22 A 89.44,89.44 0 0 0 42.59,87.35 84.63,84.63 0 0 1 39.25,64.76 h 22 z m 0,-23.76 h -22 A 84.76,84.76 0 0 1 42.59,38.77 89.45,89.45 0 0 0 61.25,41 Z m 0,-23.76 A 86.17,86.17 0 0 1 43.65,35.54 C 47.65,24.37 54,16.81 61.25,15.78 Z m 38.2,-4.79 a 47.35,47.35 0 0 1 10.87,28.55 H 90 A 88,88 0 0 0 86.6,37.94 58.91,58.91 0 0 0 99.45,32.82 Z m -24.3,-15.57 1.06,0.3 c 0.43,0.13 0.86,0.25 1.28,0.39 0.42,0.14 0.71,0.24 1.06,0.36 0.35,0.12 0.84,0.29 1.25,0.45 0.41,0.16 0.7,0.27 1,0.42 l 1.21,0.5 c 0.34,0.16 0.69,0.31 1,0.48 0.31,0.17 0.79,0.37 1.18,0.57 l 1,0.52 1.14,0.63 1,0.58 c 0.37,0.22 0.74,0.45 1.1,0.69 0.36,0.24 0.65,0.41 1,0.63 0.35,0.22 0.72,0.49 1.07,0.75 0.35,0.26 0.63,0.44 0.93,0.67 l 1,0.81 c 0.3,0.24 0.6,0.48 0.89,0.73 0.29,0.25 0.66,0.57 1,0.86 l 0.86,0.77 0.95,0.92 c 0.28,0.27 0.55,0.54 0.82,0.82 l 0.15,0.15 A 57,57 0 0 1 85.49,34.72 41.9,41.9 0 0 0 74.73,17.15 Z M 64.64,15.78 c 7.24,1 13.6,8.59 17.59,19.76 a 86.07,86.07 0 0 1 -17.59,2.07 z m 0,25.22 a 89.53,89.53 0 0 0 18.66,-2.23 85.15,85.15 0 0 1 3.33,22.6 h -22 z m 0,69.35 V 88.52 a 85.38,85.38 0 0 1 17.59,2.07 c -3.99,11.17 -10.35,18.73 -17.59,19.76 z m 18.66,-23 A 89.52,89.52 0 0 0 64.64,85.13 V 64.76 h 22 A 85,85 0 0 1 83.3,87.35 Z m 16.15,6 A 58.88,58.88 0 0 0 86.6,88.19 88,88 0 0 0 90,64.76 h 20.3 A 47.26,47.26 0 0 1 99.45,93.3 Z"
       class="cls-2" />
  </g>
</svg>
