<?xml version="1.0" encoding="UTF-8" standalone="no"?>
<svg
   xmlns:dc="http://purl.org/dc/elements/1.1/"
   xmlns:cc="http://creativecommons.org/ns#"
   xmlns:rdf="http://www.w3.org/1999/02/22-rdf-syntax-ns#"
   xmlns:svg="http://www.w3.org/2000/svg"
   xmlns="http://www.w3.org/2000/svg"
   xmlns:sodipodi="http://sodipodi.sourceforge.net/DTD/sodipodi-0.dtd"
   xmlns:inkscape="http://www.inkscape.org/namespaces/inkscape"
   inkscape:version="1.0 (4035a4fb49, 2020-05-01)"
   sodipodi:docname="Partners&amp;Alliances_.svg"
   id="svg19"
   version="1.1"
   viewBox="0 0 126 126">
  <metadata
     id="metadata23">
    <rdf:RDF>
      <cc:Work
         rdf:about="">
        <dc:format>image/svg+xml</dc:format>
        <dc:type
           rdf:resource="http://purl.org/dc/dcmitype/StillImage" />
        <dc:title></dc:title>
      </cc:Work>
    </rdf:RDF>
  </metadata>
  <sodipodi:namedview
     inkscape:current-layer="svg19"
     inkscape:window-maximized="1"
     inkscape:window-y="-11"
     inkscape:window-x="-11"
     inkscape:cy="63"
     inkscape:cx="63"
     inkscape:zoom="6.3492063"
     showgrid="false"
     id="namedview21"
     inkscape:window-height="1586"
     inkscape:window-width="2880"
     inkscape:pageshadow="2"
     inkscape:pageopacity="0"
     guidetolerance="10"
     gridtolerance="10"
     objecttolerance="10"
     borderopacity="1"
     bordercolor="#666666"
     pagecolor="#ffffff" />
  <defs
     id="defs4">
    <style
       id="style2">.cls-1{fill:#03e100;}.cls-2{fill:none;stroke:#1d252c;stroke-linejoin:round;stroke-width:7px;}</style>
  </defs>
  <g
     id="Artwork">
    <path
       id="path6"
       d="M40.58,56.8a5.25,5.25,0,1,0,5.54,0A5.26,5.26,0,0,0,40.58,56.8Z"
       class="cls-1" />
    <path
       id="path8"
       d="M79.08,56.8a5.25,5.25,0,1,0,5.54,0A5.26,5.26,0,0,0,79.08,56.8Z"
       class="cls-1" />
    <circle
       style="stroke:#999999"
       id="circle10"
       r="10.84"
       cy="24.84"
       cx="63"
       class="cls-2" />
    <polyline
       style="stroke:#999999"
       id="polyline12"
       points="81.83 70 81.81 86.84 73.58 91.24 73.58 111.75 52.93 111.75 52.78 91.37 43.35 87.5 43.35 70"
       class="cls-2" />
    <polyline
       style="stroke:#999999"
       id="polyline14"
       points="68.19 33.93 81.85 45.5 81.84 52.5"
       class="cls-2" />
    <polyline
       style="stroke:#999999"
       id="polyline16"
       points="43.35 52.5 43.35 45.5 58.54 33.11"
       class="cls-2" />
  </g>
</svg>
