<svg xmlns="http://www.w3.org/2000/svg">
    <symbol id="facebook" viewBox="0 0 512 512" fill="currentColor">
        <path d="m512 256c0-141.4-114.6-256-256-256s-256 114.6-256 256 114.6 256 256 256c1.5 0 3 0 4.5-.1v-199.2h-55v-64.1h55v-47.2c0-54.7 33.4-84.5 82.2-84.5 23.4 0 43.5 1.7 49.3 2.5v57.2h-33.6c-26.5 0-31.7 12.6-31.7 31.1v40.8h63.5l-8.3 64.1h-55.2v189.5c107-30.7 185.3-129.2 185.3-246.1z"/>
    </symbol>
    <symbol id="youtube" viewBox="0 0 512 512" fill="currentColor">
        <path d="m224.113281 303.960938 83.273438-47.960938-83.273438-47.960938zm0 0"/>
        <path d="m256 0c-141.363281 0-256 114.636719-256 256s114.636719 256 256 256 256-114.636719 256-256-114.636719-256-256-256zm159.960938 256.261719s0 51.917969-6.585938 76.953125c-3.691406 13.703125-14.496094 24.507812-28.199219 28.195312-25.035156 6.589844-125.175781 6.589844-125.175781 6.589844s-99.878906 0-125.175781-6.851562c-13.703125-3.6875-24.507813-14.496094-28.199219-28.199219-6.589844-24.769531-6.589844-76.949219-6.589844-76.949219s0-51.914062 6.589844-76.949219c3.6875-13.703125 14.757812-24.773437 28.199219-28.460937 25.035156-6.589844 125.175781-6.589844 125.175781-6.589844s100.140625 0 125.175781 6.851562c13.703125 3.6875 24.507813 14.496094 28.199219 28.199219 6.851562 25.035157 6.585938 77.210938 6.585938 77.210938zm0 0"/>
    </symbol>
    <symbol id="twitter" viewBox="0 0 512 512" fill="currentColor">
        <path d="m256 0c-141.363281 0-256 114.636719-256 256s114.636719 256 256 256 256-114.636719 256-256-114.636719-256-256-256zm116.886719 199.601562c.113281 2.519532.167969 5.050782.167969 7.59375 0 77.644532-59.101563 167.179688-167.183594 167.183594h.003906-.003906c-33.183594 0-64.0625-9.726562-90.066406-26.394531 4.597656.542969 9.277343.8125 14.015624.8125 27.53125 0 52.867188-9.390625 72.980469-25.152344-25.722656-.476562-47.410156-17.464843-54.894531-40.8125 3.582031.6875 7.265625 1.0625 11.042969 1.0625 5.363281 0 10.558593-.722656 15.496093-2.070312-26.886718-5.382813-47.140624-29.144531-47.140624-57.597657 0-.265624 0-.503906.007812-.75 7.917969 4.402344 16.972656 7.050782 26.613281 7.347657-15.777343-10.527344-26.148437-28.523438-26.148437-48.910157 0-10.765624 2.910156-20.851562 7.957031-29.535156 28.976563 35.554688 72.28125 58.9375 121.117187 61.394532-1.007812-4.304688-1.527343-8.789063-1.527343-13.398438 0-32.4375 26.316406-58.753906 58.765625-58.753906 16.902344 0 32.167968 7.144531 42.890625 18.566406 13.386719-2.640625 25.957031-7.53125 37.3125-14.261719-4.394531 13.714844-13.707031 25.222657-25.839844 32.5 11.886719-1.421875 23.214844-4.574219 33.742187-9.253906-7.863281 11.785156-17.835937 22.136719-29.308593 30.429687zm0 0"/>
    </symbol>
    <symbol id="linkedin" viewBox="0 0 112.196 112.196" fill="currentColor" >
		<path d="M89.616,60.611v23.128H76.207V62.161c0-5.418-1.936-9.118-6.791-9.118
			c-3.705,0-5.906,2.491-6.878,4.903c-0.353,0.862-0.444,2.059-0.444,3.268v22.524H48.684c0,0,0.18-36.546,0-40.329h13.411v5.715
			c-0.027,0.045-0.065,0.089-0.089,0.132h0.089v-0.132c1.782-2.742,4.96-6.662,12.085-6.662
			C83.002,42.462,89.616,48.226,89.616,60.611L89.616,60.611z M34.656,23.969c-4.587,0-7.588,3.011-7.588,6.967
			c0,3.872,2.914,6.97,7.412,6.97h0.087c4.677,0,7.585-3.098,7.585-6.97C42.063,26.98,39.244,23.969,34.656,23.969L34.656,23.969z
			M27.865,83.739H41.27V43.409H27.865V83.739z"/>
    </symbol>
    <symbol id="speedo-begin" viewBox="0 0 512 512" enable-background="new 0 0 512 512">
        <path d="m141.662 405.646c-12.906-12.905-47.17-51.068-47.395-114.367.008-43.157 16.839-83.75 47.395-114.303l-66.647-66.651c-48.374 48.37-75.015 112.646-75.015 180.986s26.641 132.616 75.015 180.986c2.929 2.929 6.767 4.393 10.606 4.393s7.678-1.465 10.607-4.394l45.434-45.437c5.858-5.858 5.858-15.355 0-21.213z" fill="#9bff00"/>
        <path d="m436.985 110.324c-48.377-48.373-112.652-75.013-180.985-75.013s-132.608 26.64-180.985 75.014c-5.859 5.859-5.852 15.36 0 21.213l45.434 45.437c5.859 5.859 15.362 5.853 21.215-.001 30.556-30.564 71.162-47.397 114.336-47.397s83.78 16.833 114.337 47.396c2.813 2.813 6.629 4.395 10.607 4.395 6.482 0 10.295-4.081 10.607-4.394l45.434-45.437c5.859-5.858 5.853-15.36 0-21.213z" fill="#ffe600"/>
        <path d="m436.985 110.324c-48.377-48.373-112.652-75.013-180.985-75.013v94.267c43.174 0 83.78 16.833 114.337 47.396 2.813 2.813 6.629 4.395 10.607 4.395 6.482 0 10.295-4.081 10.607-4.394l45.434-45.437c5.859-5.859 5.853-15.361 0-21.214z" fill="#ffaa32"/>
        <path d="m370.338 405.646c12.906-12.905 47.17-51.068 47.395-114.367-.008-43.157-16.839-83.75-47.395-114.303l66.647-66.651c48.374 48.37 75.015 112.646 75.015 180.986s-26.641 132.616-75.015 180.986c-2.929 2.929-6.767 4.393-10.606 4.393s-7.678-1.465-10.607-4.394l-45.434-45.437c-5.858-5.858-5.858-15.355 0-21.213z" fill="#ff1e5a"/>
        <path d="m94.267 291.279c.008-43.157 16.839-83.75 47.395-114.303l-66.647-66.651c-48.374 48.37-75.015 112.646-75.015 180.986z" fill="#00d200"/>
        <path d="m370.338 405.646c12.906-12.905 47.17-51.068 47.395-114.367l94.267.032c0 68.34-26.641 132.616-75.015 180.986-2.929 2.929-6.767 4.393-10.606 4.393s-7.678-1.465-10.607-4.394l-45.434-45.437c-5.858-5.858-5.858-15.355 0-21.213z" fill="#c40050"/>
        <path d="m289.328 257.986c-18.377-18.377-48.279-18.377-66.657 0-23.216 23.216-96.066 137.311-104.296 150.245-3.775 5.931-2.923 13.688 2.048 18.66 4.971 4.971 12.728 5.823 18.66 2.048 12.933-8.23 127.029-81.08 150.245-104.296 18.378-18.378 18.378-48.28 0-66.657z" fill="#003c50"/>
        <path d="m289.328 257.986-168.904 168.904c4.971 4.971 12.728 5.823 18.66 2.048 12.933-8.23 127.029-81.08 150.245-104.296 18.377-18.377 18.377-48.279-.001-66.656z" fill="#001428"/>
    </symbol>
    <symbol id="speedo-center" viewBox="0 0 512 512" enable-background="new 0 0 512 512">
        <path d="m141.662 405.646c-12.906-12.905-47.17-51.068-47.395-114.367.008-43.157 16.839-83.75 47.395-114.303l-66.647-66.651c-48.374 48.37-75.015 112.646-75.015 180.986s26.641 132.616 75.015 180.986c2.929 2.929 6.767 4.393 10.606 4.393s7.678-1.465 10.607-4.394l45.434-45.437c5.858-5.858 5.858-15.355 0-21.213z" fill="#9bff00"/>
        <path d="m436.985 110.324c-48.377-48.373-112.652-75.013-180.985-75.013s-132.608 26.64-180.985 75.014c-5.859 5.859-5.852 15.36 0 21.213l45.434 45.437c5.859 5.859 15.362 5.853 21.215-.001 30.556-30.564 71.162-47.397 114.336-47.397s83.78 16.833 114.337 47.396c2.813 2.813 6.629 4.395 10.607 4.395 6.482 0 10.295-4.081 10.607-4.394l45.434-45.437c5.859-5.858 5.853-15.36 0-21.213z" fill="#ffe600"/>
        <path d="m436.985 110.324c-48.377-48.373-112.652-75.013-180.985-75.013v94.267c43.174 0 83.78 16.833 114.337 47.396 2.813 2.813 6.629 4.395 10.607 4.395 6.482 0 10.295-4.081 10.607-4.394l45.434-45.437c5.859-5.859 5.853-15.361 0-21.214z" fill="#ffaa32"/>
        <path d="m370.338 405.646c12.906-12.905 47.17-51.068 47.395-114.367-.008-43.157-16.839-83.75-47.395-114.303l66.647-66.651c48.374 48.37 75.015 112.646 75.015 180.986s-26.641 132.616-75.015 180.986c-2.929 2.929-6.767 4.393-10.606 4.393s-7.678-1.465-10.607-4.394l-45.434-45.437c-5.858-5.858-5.858-15.355 0-21.213z" fill="#ff1e5a"/>
        <path d="m94.267 291.279c.008-43.157 16.839-83.75 47.395-114.303l-66.647-66.651c-48.374 48.37-75.015 112.646-75.015 180.986z" fill="#00d200"/>
        <path d="m370.338 405.646c12.906-12.905 47.17-51.068 47.395-114.367l94.267.032c0 68.34-26.641 132.616-75.015 180.986-2.929 2.929-6.767 4.393-10.606 4.393s-7.678-1.465-10.607-4.394l-45.434-45.437c-5.858-5.858-5.858-15.355 0-21.213z" fill="#c40050"/>
        <path d="m256 338.444c-25.989 0-47.133-21.144-47.133-47.133 0-32.832 29.165-165.022 32.491-179.987 1.525-6.863 7.612-11.746 14.643-11.746s13.118 4.883 14.643 11.746c3.326 14.965 32.491 147.155 32.491 179.987-.002 25.989-21.146 47.133-47.135 47.133z" fill="#003c50"/>
        <path d="m256 338.444v-238.867c7.03 0 13.118 4.883 14.643 11.746 3.326 14.965 32.491 147.155 32.491 179.987-.001 25.99-21.145 47.134-47.134 47.134z" fill="#001428"/>
    </symbol>
    <symbol id="speedo-max" viewBox="0 0 512 512" enable-background="new 0 0 512 512">
        <path d="m436.985 110.324c-48.377-48.373-112.652-75.013-180.985-75.013s-132.608 26.64-180.985 75.014c-5.859 5.859-5.852 15.36 0 21.213l45.434 45.437c5.859 5.859 15.362 5.853 21.215-.001 30.556-30.564 71.162-47.397 114.336-47.397s83.78 16.833 114.337 47.396c2.813 2.813 6.629 4.395 10.607 4.395 6.482 0 10.295-4.081 10.607-4.394l45.434-45.437c5.859-5.858 5.853-15.36 0-21.213z" fill="#ffe600"/>
        <path d="m436.985 110.324c-48.377-48.373-112.652-75.013-180.985-75.013v94.267c43.174 0 83.78 16.833 114.337 47.396 2.813 2.813 6.629 4.395 10.607 4.395 6.482 0 10.295-4.081 10.607-4.394l45.434-45.437c5.859-5.859 5.853-15.361 0-21.214z" fill="#ffaa32"/>
        <path d="m141.662 405.646c-12.906-12.905-47.17-51.068-47.395-114.367.008-43.157 16.839-83.75 47.395-114.303l-66.647-66.651c-48.374 48.37-75.015 112.646-75.015 180.986s26.641 132.616 75.015 180.986c2.929 2.929 6.767 4.393 10.606 4.393s7.678-1.465 10.607-4.394l45.434-45.437c5.858-5.858 5.858-15.355 0-21.213z" fill="#9bff00"/>
        <path d="m370.338 405.646c12.906-12.905 47.17-51.068 47.395-114.367-.008-43.157-16.839-83.75-47.395-114.303l66.647-66.651c48.374 48.37 75.015 112.646 75.015 180.986s-26.641 132.616-75.015 180.986c-2.929 2.929-6.767 4.393-10.606 4.393s-7.678-1.465-10.607-4.394l-45.434-45.437c-5.858-5.858-5.858-15.355 0-21.213z" fill="#ff1e5a"/>
        <path d="m94.267 291.279c.008-43.157 16.839-83.75 47.395-114.303l-66.647-66.651c-48.374 48.37-75.015 112.646-75.015 180.986z" fill="#00d200"/>
        <path d="m370.338 405.646c12.906-12.905 47.17-51.068 47.395-114.367l94.267.032c0 68.34-26.641 132.616-75.015 180.986-2.929 2.929-6.767 4.393-10.606 4.393s-7.678-1.465-10.607-4.394l-45.434-45.437c-5.858-5.858-5.858-15.355 0-21.213z" fill="#c40050"/>
        <path d="m222.673 257.977c-18.377 18.377-18.377 48.279 0 66.657 23.216 23.216 137.311 96.066 150.245 104.296 5.931 3.775 13.688 2.923 18.66-2.048 4.971-4.971 5.823-12.728 2.048-18.66-8.23-12.933-81.08-127.029-104.296-150.245-18.377-18.377-48.279-18.377-66.657 0z" fill="#003c50"/>
        <path d="m222.673 257.977 168.904 168.904c4.971-4.971 5.823-12.728 2.048-18.66-8.23-12.933-81.08-127.029-104.296-150.245-18.376-18.376-48.278-18.376-66.656.001z" fill="#001428"/>
    </symbol>
    <symbol id="arrow" viewBox="0 0 1000 1000 " fill="#FFF" enable-background="new 0 0 512 512">
        <path d="M484.132,124.986l-16.116-16.228c-5.072-5.068-11.82-7.86-19.032-7.86c-7.208,0-13.964,2.792-19.036,7.86l-183.84,183.848
        L62.056,108.554c-5.064-5.068-11.82-7.856-19.028-7.856s-13.968,2.788-19.036,7.856l-16.12,16.128
        c-10.496,10.488-10.496,27.572,0,38.06l219.136,219.924c5.064,5.064,11.812,8.632,19.084,8.632h0.084
        c7.212,0,13.96-3.572,19.024-8.632l218.932-219.328c5.072-5.064,7.856-12.016,7.864-19.224
        C491.996,136.902,489.204,130.046,484.132,124.986z"/>

    </symbol>
</svg>