<svg xmlns="http://www.w3.org/2000/svg" viewBox="0 0 126 126"><defs><style>.cls-1{fill:#03e100;}.cls-2{fill:#1d252c;stroke:#1d252c;stroke-miterlimit:10;stroke-width:4px;}</style></defs><g id="Artwork"><circle class="cls-1" cx="91" cy="106.75" r="5.25"/><circle class="cls-1" cx="35" cy="19.25" r="5.25"/><path class="cls-2" d="M62.94,12.26a49.31,49.31,0,0,0-5.44.29l-1.44.17S51,17.19,51.14,17.16A42,42,0,0,0,40.32,34.73a57.22,57.22,0,0,1-11.6-4.46l-2.87-1.92c-.37.4-.74.8-1.1,1.22a50.8,50.8,0,0,0,45.48,83.66L74.74,109A42.05,42.05,0,0,0,85.56,91.39a57,57,0,0,1,11.61,4.47,35.64,35.64,0,0,1,3.19,1.86c8.13-9.26,13.4-22.33,13.39-34.66A50.8,50.8,0,0,0,62.94,12.26ZM26.43,32.82a58.5,58.5,0,0,0,12.86,5.12,87.23,87.23,0,0,0-3.42,23.43H15.56A47.35,47.35,0,0,1,26.43,32.82Zm0,60.48A47.32,47.32,0,0,1,15.56,64.76H35.87a87.23,87.23,0,0,0,3.42,23.43A59,59,0,0,0,26.43,93.3Zm24.29,15.58-1-.3-1.28-.39-1.06-.36-1.24-.45L45,107l-1.21-.51-1-.47-1.18-.57-1-.52-1.14-.64c-.34-.18-.66-.38-1-.57l-1.1-.69-1-.63c-.36-.24-.72-.5-1.07-.75l-.93-.68c-.35-.26-.69-.54-1-.81l-.89-.72c-.34-.28-.67-.58-1-.87l-.86-.77-.95-.92L28.85,96l-.14-.16a56.67,56.67,0,0,1,11.6-4.47A42,42,0,0,0,51.14,109Zm10.53,1.47c-7.25-1-13.6-8.59-17.6-19.76a85.48,85.48,0,0,1,17.6-2.07Zm0-25.22a89.44,89.44,0,0,0-18.66,2.22,84.63,84.63,0,0,1-3.34-22.59h22Zm0-23.76h-22a84.76,84.76,0,0,1,3.34-22.6A89.45,89.45,0,0,0,61.25,41Zm0-23.76a86.17,86.17,0,0,1-17.6-2.07c4-11.17,10.35-18.73,17.6-19.76Zm38.2-4.79a47.35,47.35,0,0,1,10.87,28.55H90A88,88,0,0,0,86.6,37.94,58.91,58.91,0,0,0,99.45,32.82ZM75.15,17.25l1.06.3c.43.13.86.25,1.28.39s.71.24,1.06.36.84.29,1.25.45.7.27,1,.42l1.21.5c.34.16.69.31,1,.48s.79.37,1.18.57l1,.52,1.14.63,1,.58c.37.22.74.45,1.1.69s.65.41,1,.63.72.49,1.07.75.63.44.93.67l1,.81c.3.24.6.48.89.73s.66.57,1,.86l.86.77.95.92c.28.27.55.54.82.82l.15.15a57,57,0,0,1-11.61,4.47A41.9,41.9,0,0,0,74.73,17.15ZM64.64,15.78c7.24,1,13.6,8.59,17.59,19.76a86.07,86.07,0,0,1-17.59,2.07Zm0,25.22A89.53,89.53,0,0,0,83.3,38.77a85.15,85.15,0,0,1,3.33,22.6h-22Zm0,69.35V88.52a85.38,85.38,0,0,1,17.59,2.07C78.24,101.76,71.88,109.32,64.64,110.35Zm18.66-23a89.52,89.52,0,0,0-18.66-2.22V64.76h22A85,85,0,0,1,83.3,87.35Zm16.15,6A58.88,58.88,0,0,0,86.6,88.19,88,88,0,0,0,90,64.76h20.3A47.26,47.26,0,0,1,99.45,93.3Z"/></g></svg>