<?xml version="1.0" encoding="UTF-8" standalone="no"?>
<svg
   xmlns:dc="http://purl.org/dc/elements/1.1/"
   xmlns:cc="http://creativecommons.org/ns#"
   xmlns:rdf="http://www.w3.org/1999/02/22-rdf-syntax-ns#"
   xmlns:svg="http://www.w3.org/2000/svg"
   xmlns="http://www.w3.org/2000/svg"
   xmlns:sodipodi="http://sodipodi.sourceforge.net/DTD/sodipodi-0.dtd"
   xmlns:inkscape="http://www.inkscape.org/namespaces/inkscape"
   inkscape:version="1.0 (4035a4fb49, 2020-05-01)"
   height="233.69205"
   width="708.67883"
   sodipodi:docname="Logo2.svg"
   version="1.1"
   viewBox="0 0 708.67883 233.69205"
   id="Artwork">
  <metadata
     id="metadata31">
    <rdf:RDF>
      <cc:Work
         rdf:about="">
        <dc:format>image/svg+xml</dc:format>
        <dc:type
           rdf:resource="http://purl.org/dc/dcmitype/StillImage" />
        <dc:title>Getronics_Logo_Green_RGB</dc:title>
      </cc:Work>
    </rdf:RDF>
  </metadata>
  <sodipodi:namedview
     inkscape:current-layer="Artwork"
     inkscape:window-maximized="1"
     inkscape:window-y="1609"
     inkscape:window-x="2038"
     inkscape:cy="72.562295"
     inkscape:cx="172.96307"
     inkscape:zoom="0.90065232"
     showgrid="false"
     id="namedview29"
     inkscape:window-height="986"
     inkscape:window-width="1920"
     inkscape:pageshadow="2"
     inkscape:pageopacity="0"
     guidetolerance="10"
     gridtolerance="10"
     objecttolerance="10"
     borderopacity="1"
     bordercolor="#666666"
     pagecolor="#ffffff" />
  <defs
     id="defs4">
    <style
       id="style2">.cls-1{fill:#03e100;}</style>
  </defs>
  <title
     id="title6">Logo</title>
  <path
     id="path8"
     d="m 611.59266,94.075699 c -3.5966,7.455401 -10.4272,12.570001 -19.3683,12.570001 -12.2015,0 -21.5245,-9.782901 -21.5245,-23.231901 0,-13.449 9.323,-23.2292 21.5245,-23.2292 8.9454,0 15.7779,5.12 19.3732,12.5786 l 20.7949,-9.7886 a 44.8152,44.8152 0 0 0 -40.1681,-25.1473 c -25.0841,0 -44.9143,19.2124 -44.9143,45.5865 0,26.374101 19.83,45.589101 44.9143,45.589201 a 44.8169,44.8169 0 0 0 40.1627,-25.1392 z"
     class="cls-1" />
  <path
     id="path10"
     d="m 682.71786,73.458499 -8.6507,-2.3682 c -8.3571,-2.0261 -9.8359,-4.9666 -9.8359,-7.5876 0,-4.0169 3.8541,-6.4182 10.2512,-5.9389 5.1437,0.3854 9.3745,2.1605 12.4816,5.3125 0.5246,0.5375 1.0351,1.121 1.5472,1.6987 l 19.9218,-9.3775 c 0,0 -1.0477,-1.4618 -1.3083,-1.8107 a 36.6513,36.6513 0 0 0 -14.9511,-12.1012 43.9319,43.9319 0 0 0 -17.3338,-3.458 c -19.1574,0 -33.1236,10.3041 -33.66,26.3741 -0.5372,13.4489 8.2352,23.7531 24.708,27.9454 3.3539,0.8737 5.481,1.2991 7.6047,1.7917 9.6248,1.9 12.305,4.498 12.305,8.164101 0,4.3677 -4.0664,6.4555 -11.0167,6.4021 -7.0023,-0.0537 -13.575,-2.6492 -17.7411,-7.6738 l -19.6652,9.2579 c 8.0605,13.2446 21.1248,18.9141 37.2874,18.9142 19.3351,0 34.0169,-11.7023 34.0169,-28.4715 -10e-5,-15.195501 -10.0254,-22.881101 -25.961,-27.073301 z"
     class="cls-1" />
  <path
     id="path12"
     d="m 468.91786,37.827099 c -11.0156,0 -19.66,4.8889 -24.236,11.8777 v -9.9583 h -23.2219 V 127.0806 h 22.9892 l -0.004,-49.427801 c 0,-11.0933 7.698,-18.0306 16.9817,-18.0306 a 16.9,16.9 0 0 1 12.5071,5.5532 c 0.1672,0.1829 0.34,0.3579 0.4994,0.551 a 18.3132,18.3132 0 0 1 3.9679,11.8086 l 0.0455,49.545801 h 23.183 V 75.903699 c 0,-22.7055 -12.2041,-38.0766 -32.7122,-38.0766 z"
     class="cls-1" />
  <path
     id="path14"
     d="m 322.06206,38.128399 h -2.2434 c -12.4073,0 -21.6148,4.8521 -26.1911,11.8409 v -10.2508 h -23.2218 V 127.0525 h 23.2218 V 84.234099 c 0,-17.989 11.99,-24.6016 28.4345,-24.6015 z"
     class="cls-1" />
  <path
     id="path16"
     d="m 59.401562,138.9115 v -9.0387 a 48.05,48.05 0 1 0 -23.1079,-0.109 v 9.2568 a 48.0679,48.0679 0 1 0 23.1079,-0.1091 z m -35.15,-55.729501 a 23.8249,23.8249 0 1 1 23.8249,23.824801 23.8249,23.8249 0 0 1 -23.8249,-23.824601 z m 23.8253,126.245501 a 23.8249,23.8249 0 1 1 23.8247,-23.8249 23.8249,23.8249 0 0 1 -23.8247,23.8249 z"
     class="cls-1" />
  <rect
     id="rect18"
     height="87.3022"
     width="23.213301"
     y="39.754692"
     x="513.78729"
     class="cls-1" />
  <path
     id="path20"
     d="m 525.24206,0.00249902 a 14.3074,14.3074 0 1 0 14.04,14.30609998 14.2125,14.2125 0 0 0 -14.04,-14.30609998 z"
     class="cls-1" />
  <path
     id="path22"
     d="m 366.82296,37.835899 c -24.4233,0 -44.221,20.4031 -44.221,45.5712 0,25.168101 19.7977,45.571101 44.221,45.571101 24.4216,0 44.2207,-20.4027 44.2207,-45.571101 0,-25.1684 -19.7991,-45.5712 -44.2207,-45.5712 z m 0,68.575301 c -12.3292,0 -22.3219,-10.299001 -22.3219,-23.004101 0,-12.7051 9.9927,-23.0035 22.3219,-23.0035 12.3292,0 22.3219,10.299 22.3219,23.0035 0,12.7045 -9.994,23.004401 -22.3219,23.004401 z"
     class="cls-1" />
  <path
     id="path24"
     d="m 236.73346,98.175899 c 0,6.071601 3.4054,10.070001 11.107,10.070001 a 56.9388,56.9388 0 0 0 8.1456,-0.5919 v 18.8078 a 49.4645,49.4645 0 0 1 -13.7732,1.778 c -24.4365,0 -28.5829,-15.9952 -28.5826,-28.880001 l 9e-4,-39.7007 h -14.2383 v -19.9939 h 14.5338 l 6e-4,-27.1188 h 22.8077 l -6e-4,27.1188 h 19.5492 v 19.9939 h -19.5492 z"
     class="cls-1" />
  <path
     id="path26"
     d="m 128.64646,72.744399 c 3.3684,-8.2137 11.2007,-13.4539 21.1784,-13.4539 10.012,0 17.42,4.533 20.1761,13.4818 z m 64.9789,16.3691 a 45.8592,45.8592 0 0 0 0.3838,-5.9322 c 0,-25.0884 -19.096,-45.4265 -44.1843,-45.4265 a 45.4265,45.4265 0 0 0 -45.4266,45.4267 c 0,25.088301 20.3442,44.872601 45.4264,45.426501 18.9915,0.4194 31.2682,-6.5789 40.6913,-19.8074 a 13.3109,13.3109 0 0 0 1.0825,-1.75 l -20.0969,-9.123101 c -3.9926,6.142401 -12.0169,9.927501 -22.2414,9.144301 -10.6735,-0.8177 -20.0469,-7.267801 -22.33,-17.951901 z"
     class="cls-1" />
</svg>
