<svg xmlns="http://www.w3.org/2000/svg" viewBox="0 0 126 126"><defs><style>.cls-1{fill:#03e100;}.cls-2{fill:none;stroke:#1d252c;stroke-linejoin:round;stroke-width:7px;}</style></defs><g id="Artwork"><path class="cls-1" d="M40.58,56.8a5.25,5.25,0,1,0,5.54,0A5.26,5.26,0,0,0,40.58,56.8Z"/><path class="cls-1" d="M79.08,56.8a5.25,5.25,0,1,0,5.54,0A5.26,5.26,0,0,0,79.08,56.8Z"/><circle class="cls-2" cx="63" cy="24.84" r="10.84"/><polyline class="cls-2" points="81.83 70 81.81 86.84 73.58 91.24 73.58 111.75 52.93 111.75 52.78 91.37 43.35 87.5 43.35 70"/><polyline class="cls-2" points="68.19 33.93 81.85 45.5 81.84 52.5"/><polyline class="cls-2" points="43.35 52.5 43.35 45.5 58.54 33.11"/></g></svg>