<?xml version="1.0" encoding="UTF-8" standalone="no"?>
<svg
   xmlns:dc="http://purl.org/dc/elements/1.1/"
   xmlns:cc="http://creativecommons.org/ns#"
   xmlns:rdf="http://www.w3.org/1999/02/22-rdf-syntax-ns#"
   xmlns:svg="http://www.w3.org/2000/svg"
   xmlns="http://www.w3.org/2000/svg"
   xmlns:sodipodi="http://sodipodi.sourceforge.net/DTD/sodipodi-0.dtd"
   xmlns:inkscape="http://www.inkscape.org/namespaces/inkscape"
   inkscape:version="1.0 (4035a4fb49, 2020-05-01)"
   sodipodi:docname="Product_Sales_.svg"
   id="svg27"
   version="1.1"
   viewBox="0 0 126 126">
  <metadata
     id="metadata31">
    <rdf:RDF>
      <cc:Work
         rdf:about="">
        <dc:format>image/svg+xml</dc:format>
        <dc:type
           rdf:resource="http://purl.org/dc/dcmitype/StillImage" />
        <dc:title></dc:title>
      </cc:Work>
    </rdf:RDF>
  </metadata>
  <sodipodi:namedview
     inkscape:current-layer="svg27"
     inkscape:window-maximized="1"
     inkscape:window-y="-11"
     inkscape:window-x="-11"
     inkscape:cy="46.056089"
     inkscape:cx="103.64944"
     inkscape:zoom="6.3492063"
     showgrid="false"
     id="namedview29"
     inkscape:window-height="1586"
     inkscape:window-width="2880"
     inkscape:pageshadow="2"
     inkscape:pageopacity="0"
     guidetolerance="10"
     gridtolerance="10"
     objecttolerance="10"
     borderopacity="1"
     bordercolor="#666666"
     pagecolor="#ffffff" />
  <defs
     id="defs4">
    <style
       id="style2">.cls-1,.cls-5{fill:none;stroke-linejoin:round;}.cls-1,.cls-3,.cls-5{stroke:#1d252c;}.cls-1{stroke-width:7px;}.cls-2{fill:#03e100;}.cls-3,.cls-4{fill:#1d252c;}.cls-3{stroke-miterlimit:10;}.cls-5{stroke-width:4px;}</style>
  </defs>
  <g
     id="Artwork">
    <path
       style="stroke:#999999"
       id="path6"
       d="m 102.2,104.88 c -12.4,0.22 -65.76,0.06 -77.69,0.1 C 12.58,105.02 14,85.75 14,85.75 h 97.42 c 0,0 3.04,18.51 -9.22,19.13 z"
       class="cls-1" />
    <circle
       id="circle8"
       r="5.25"
       cy="59.5"
       cx="40.25"
       class="cls-2" />
    <polyline
       style="stroke:#999999"
       id="polyline10"
       points="56 28 21 28 21 82.91"
       class="cls-1" />
    <line
       style="stroke:#999999"
       id="line12"
       y2="63"
       x2="105"
       y1="84"
       x1="105"
       class="cls-1" />
    <line
       style="stroke:#999999"
       id="line14"
       y2="59.5"
       x2="66.5"
       y1="59.5"
       x1="49.009998"
       class="cls-1" />
    <path
       style="fill:#999999;stroke:#999999"
       id="path16"
       d="m 113.54,31.07 a 1.9,1.9 0 0 0 -1.33,-0.55 h -4.15 a 20.67,20.67 0 0 0 -1.32,-3 l 2.47,-2.31 a 1.83,1.83 0 0 0 0.6,-1.37 1.9,1.9 0 0 0 -0.59,-1.38 l -6.54,-6.13 a 1.87,1.87 0 0 0 -2.57,0 l -2.64,2.46 A 22.77,22.77 0 0 0 94.22,17.53 V 14.14 A 1.84,1.84 0 0 0 93.67,12.81 1.88,1.88 0 0 0 92.34,12.26 H 87.71 V 16 h 2.75 v 3 a 1.86,1.86 0 0 0 1.46,1.84 18.21,18.21 0 0 1 4.94,1.9 1.9,1.9 0 0 0 2.22,-0.26 l 2.32,-2.17 3.78,3.54 -2.11,2 a 1.88,1.88 0 0 0 -0.3,2.41 15.83,15.83 0 0 1 2.08,4.64 1.89,1.89 0 0 0 1.82,1.41 h 3.66 v 4.89 h -3.62 a 1.89,1.89 0 0 0 -1.83,1.41 14.77,14.77 0 0 1 -0.87,2.54 15.48,15.48 0 0 1 -1.21,2.18 1.89,1.89 0 0 0 0.29,2.41 l 2.34,2.2 -3.79,3.53 L 99.06,51 a 1.86,1.86 0 0 0 -2.21,-0.27 18.36,18.36 0 0 1 -4.94,1.89 1.89,1.89 0 0 0 -1.46,1.84 v 3 h -2.74 v 3.77 h 4.62 a 1.89,1.89 0 0 0 1.89,-1.88 V 56 a 22,22 0 0 0 3.25,-1.25 l 2.86,2.68 a 1.9,1.9 0 0 0 2.58,0 l 6.55,-6.11 a 1.89,1.89 0 0 0 0.6,-1.38 1.86,1.86 0 0 0 -0.59,-1.37 L 106.76,46 q 0.36,-0.65 0.66,-1.32 a 18.55,18.55 0 0 0 0.68,-1.74 h 4.09 a 1.88,1.88 0 0 0 1.88,-1.88 V 32.4 a 1.88,1.88 0 0 0 -0.53,-1.33 z"
       class="cls-3" />
    <path
       style="fill:#999999;stroke:#999999"
       id="path18"
       d="m 61.46,42.43 a 1.9,1.9 0 0 0 1.33,0.55 h 4.15 a 20.67,20.67 0 0 0 1.32,3 l -2.47,2.31 a 1.83,1.83 0 0 0 -0.6,1.37 1.9,1.9 0 0 0 0.59,1.34 l 6.54,6.13 a 1.87,1.87 0 0 0 2.57,0 l 2.64,-2.46 A 22.77,22.77 0 0 0 80.78,56 v 3.41 a 1.84,1.84 0 0 0 0.55,1.33 1.88,1.88 0 0 0 1.33,0.55 h 4.63 v -3.81 h -2.74 v -3 A 1.86,1.86 0 0 0 83.09,52.64 18.21,18.21 0 0 1 78.15,50.74 1.9,1.9 0 0 0 75.93,51 l -2.32,2.17 -3.78,-3.54 2.11,-2 a 1.88,1.88 0 0 0 0.3,-2.41 15.83,15.83 0 0 1 -2.08,-4.64 1.89,1.89 0 0 0 -1.82,-1.41 H 64.68 V 34.33 H 68.3 A 1.89,1.89 0 0 0 70.13,32.92 14.77,14.77 0 0 1 71,30.39 16.06,16.06 0 0 1 72.21,28.21 1.89,1.89 0 0 0 71.92,25.8 l -2.34,-2.2 3.79,-3.53 2.56,2.4 a 1.87,1.87 0 0 0 2.21,0.26 18.36,18.36 0 0 1 4.94,-1.89 1.89,1.89 0 0 0 1.47,-1.84 v -3 h 2.73 v -3.74 h -4.6 a 1.89,1.89 0 0 0 -1.89,1.88 v 3.42 a 22,22 0 0 0 -3.25,1.25 l -2.86,-2.68 a 1.9,1.9 0 0 0 -2.58,0 l -6.55,6.11 a 1.9,1.9 0 0 0 0,2.76 l 2.7,2.53 q -0.36,0.64 -0.66,1.32 c -0.25,0.55 -0.47,1.13 -0.68,1.74 h -4.1 a 1.88,1.88 0 0 0 -1.88,1.88 v 8.66 a 1.88,1.88 0 0 0 0.53,1.3 z"
       class="cls-3" />
    <rect
       style="fill:#999999"
       id="rect20"
       height="3.77"
       width="4.23"
       y="12.25"
       x="85.410004"
       class="cls-4" />
    <circle
       id="circle22"
       r="5.25"
       cy="30.36"
       cx="93.77"
       class="cls-2" />
    <path
       style="stroke:#999999"
       id="path24"
       d="m 96.77,37.69 a 9.32,9.32 0 1 1 -10,-10.81"
       class="cls-5" />
  </g>
</svg>
