<svg xmlns="http://www.w3.org/2000/svg" viewBox="0 0 126 126"><defs><style>.cls-1,.cls-5{fill:none;stroke-linejoin:round;}.cls-1,.cls-3,.cls-5{stroke:#1d252c;}.cls-1{stroke-width:7px;}.cls-2{fill:#03e100;}.cls-3,.cls-4{fill:#1d252c;}.cls-3{stroke-miterlimit:10;}.cls-5{stroke-width:4px;}</style></defs><g id="Artwork"><path class="cls-1" d="M102.2,104.88c-12.4.22-65.76.06-77.69.1S14,85.75,14,85.75h97.42S114.46,104.26,102.2,104.88Z"/><circle class="cls-2" cx="40.25" cy="59.5" r="5.25"/><polyline class="cls-1" points="56 28 21 28 21 82.91"/><line class="cls-1" x1="105" y1="84" x2="105" y2="63"/><line class="cls-1" x1="49.01" y1="59.5" x2="66.5" y2="59.5"/><path class="cls-3" d="M113.54,31.07a1.9,1.9,0,0,0-1.33-.55h-4.15a20.67,20.67,0,0,0-1.32-3l2.47-2.31a1.83,1.83,0,0,0,.6-1.37,1.9,1.9,0,0,0-.59-1.38l-6.54-6.13a1.87,1.87,0,0,0-2.57,0l-2.64,2.46a22.77,22.77,0,0,0-3.25-1.26V14.14a1.84,1.84,0,0,0-.55-1.33,1.88,1.88,0,0,0-1.33-.55H87.71V16h2.75v3a1.86,1.86,0,0,0,1.46,1.84,18.21,18.21,0,0,1,4.94,1.9,1.9,1.9,0,0,0,2.22-.26l2.32-2.17,3.78,3.54-2.11,2a1.88,1.88,0,0,0-.3,2.41,15.83,15.83,0,0,1,2.08,4.64,1.89,1.89,0,0,0,1.82,1.41h3.66v4.89h-3.62a1.89,1.89,0,0,0-1.83,1.41,14.77,14.77,0,0,1-.87,2.54,15.48,15.48,0,0,1-1.21,2.18,1.89,1.89,0,0,0,.29,2.41l2.34,2.2-3.79,3.53L99.06,51a1.86,1.86,0,0,0-2.21-.27,18.36,18.36,0,0,1-4.94,1.89,1.89,1.89,0,0,0-1.46,1.84v3H87.71v3.77h4.62a1.89,1.89,0,0,0,1.89-1.88V56a22,22,0,0,0,3.25-1.25l2.86,2.68a1.9,1.9,0,0,0,2.58,0l6.55-6.11a1.89,1.89,0,0,0,.6-1.38,1.86,1.86,0,0,0-.59-1.37L106.76,46q.36-.65.66-1.32a18.55,18.55,0,0,0,.68-1.74h4.09a1.88,1.88,0,0,0,1.88-1.88l0-8.66A1.88,1.88,0,0,0,113.54,31.07Z"/><path class="cls-3" d="M61.46,42.43a1.9,1.9,0,0,0,1.33.55h4.15a20.67,20.67,0,0,0,1.32,3l-2.47,2.31a1.83,1.83,0,0,0-.6,1.37A1.9,1.9,0,0,0,65.78,51l6.54,6.13a1.87,1.87,0,0,0,2.57,0l2.64-2.46A22.77,22.77,0,0,0,80.78,56v3.41a1.84,1.84,0,0,0,.55,1.33,1.88,1.88,0,0,0,1.33.55h4.63V57.48H84.55v-3a1.86,1.86,0,0,0-1.46-1.84,18.21,18.21,0,0,1-4.94-1.9,1.9,1.9,0,0,0-2.22.26l-2.32,2.17-3.78-3.54,2.11-2a1.88,1.88,0,0,0,.3-2.41,15.83,15.83,0,0,1-2.08-4.64,1.89,1.89,0,0,0-1.82-1.41H64.68V34.33h3.62a1.89,1.89,0,0,0,1.83-1.41A14.77,14.77,0,0,1,71,30.39a16.06,16.06,0,0,1,1.21-2.18,1.89,1.89,0,0,0-.29-2.41l-2.34-2.2,3.79-3.53,2.56,2.4a1.87,1.87,0,0,0,2.21.26,18.36,18.36,0,0,1,4.94-1.89A1.89,1.89,0,0,0,84.55,19V16h2.73V12.26H82.68a1.89,1.89,0,0,0-1.89,1.88v3.42a22,22,0,0,0-3.25,1.25l-2.86-2.68a1.9,1.9,0,0,0-2.58,0l-6.55,6.11a1.9,1.9,0,0,0,0,2.76l2.7,2.53q-.36.64-.66,1.32c-.25.55-.47,1.13-.68,1.74H62.81a1.88,1.88,0,0,0-1.88,1.88l0,8.66A1.88,1.88,0,0,0,61.46,42.43Z"/><rect class="cls-4" x="85.41" y="12.25" width="4.23" height="3.77"/><circle class="cls-2" cx="93.77" cy="30.36" r="5.25"/><path class="cls-5" d="M96.77,37.69a9.32,9.32,0,1,1-10-10.81"/></g></svg>